<svg xmlns="http://www.w3.org/2000/svg" viewBox="0 0 100 100">
    <ellipse cx="50" cy="94" rx="26" ry="4" fill="#000" opacity=".12"/>
    <g>
    <g>
      <path d="M50 34 C49 24 50 18 52 12" stroke="#2E6417" stroke-width="4" fill="none" stroke-linecap="round"/>
      <path d="M51 20 C43 6 26 5 18 10 C24 24 40 27 51 20Z" fill="#7ED957"/>
      <path d="M51 20 C58 7 74 4 83 8 C78 22 62 27 51 20Z" fill="#C1FF72"/>
      <path d="M31 18 C38 18 44 19 50 20M71 16 C64 17 58 18 52 20" stroke="#2E6417" stroke-width="1.6" fill="none" opacity=".5"/>
    </g>
    
    <path d="M50 30 C24 30 16 54 20 72 C24 90 76 90 80 72 C84 54 76 30 50 30Z" fill="#00BF63"/>
    <path d="M26 58 C27 44 34 36 44 34" stroke="#fff" stroke-width="3" fill="none" opacity=".35" stroke-linecap="round"/>
    <g transform="translate(0 54)"><g><g transform="translate(0 -54)">
      <ellipse cx="39" cy="54" rx="7.5" ry="8.5" fill="#fff"/><ellipse cx="61" cy="54" rx="7.5" ry="8.5" fill="#fff"/>
      <circle cx="40.5" cy="55" r="4" fill="#1E440E"/><circle cx="62.5" cy="55" r="4" fill="#1E440E"/>
      <circle cx="41.8" cy="53.4" r="1.3" fill="#fff"/><circle cx="63.8" cy="53.4" r="1.3" fill="#fff"/>
    </g></g></g>
    <ellipse cx="30" cy="66" rx="5" ry="3" fill="#C1FF72" opacity=".8"/><ellipse cx="70" cy="66" rx="5" ry="3" fill="#C1FF72" opacity=".8"/>
    <path d="M41 67 Q50 76 59 67" fill="none" stroke="#1E440E" stroke-width="3.4" stroke-linecap="round"/><path d="M23 60 C23 24 77 24 77 60" stroke="#1E440E" stroke-width="4.5" fill="none" stroke-linecap="round"/><rect x="15" y="52" width="12" height="19" rx="6" fill="#2E6417"/><rect x="73" y="52" width="12" height="19" rx="6" fill="#2E6417"/><rect x="17" y="55" width="4" height="13" rx="2" fill="#C1FF72"/><rect x="79" y="55" width="4" height="13" rx="2" fill="#C1FF72"/>
    </g>
  </svg>